<svg width="154" height="40" viewBox="0 0 154 40" fill="none" xmlns="http://www.w3.org/2000/svg">
<path d="M69.6963 14.637C71.2603 14.637 72.5176 15.12 73.4683 16.086C74.4343 17.0367 74.9173 18.3707 74.9173 20.088V27.563H71.6973V20.525C71.6973 19.5284 71.4443 18.7694 70.9383 18.248C70.4323 17.7114 69.7423 17.443 68.8683 17.443C67.9943 17.443 67.2966 17.7114 66.7753 18.248C66.2693 18.7694 66.0163 19.5284 66.0163 20.525V27.563H62.7963V20.525C62.7963 19.5284 62.5433 18.7694 62.0373 18.248C61.5313 17.7114 60.8413 17.443 59.9673 17.443C59.0779 17.443 58.3726 17.7114 57.8513 18.248C57.3453 18.7694 57.0923 19.5284 57.0923 20.525V27.563H53.8723V14.821H57.0923V16.362C57.5063 15.8254 58.0353 15.4037 58.6793 15.097C59.3386 14.7904 60.0593 14.637 60.8413 14.637C61.8379 14.637 62.7273 14.8517 63.5093 15.281C64.2913 15.695 64.8969 16.293 65.3263 17.075C65.7403 16.339 66.3383 15.7487 67.1203 15.304C67.9176 14.8594 68.7763 14.637 69.6963 14.637ZM90.1629 14.821L82.2739 33.589H78.8469L81.6069 27.241L76.5009 14.821H80.1119L83.4009 23.722L86.7359 14.821H90.1629ZM96.5511 21.192C96.5511 19.8734 96.8194 18.7234 97.3561 17.742C97.8928 16.7454 98.6364 15.9787 99.5871 15.442C100.538 14.89 101.626 14.614 102.853 14.614C104.432 14.614 105.736 15.0127 106.763 15.81C107.806 16.592 108.503 17.696 108.856 19.122H105.383C105.199 18.57 104.885 18.1407 104.44 17.834C104.011 17.512 103.474 17.351 102.83 17.351C101.91 17.351 101.182 17.6884 100.645 18.363C100.108 19.0224 99.8401 19.9654 99.8401 21.192C99.8401 22.4034 100.108 23.3464 100.645 24.021C101.182 24.6804 101.91 25.01 102.83 25.01C104.133 25.01 104.984 24.4274 105.383 23.262H108.856C108.503 24.642 107.806 25.7384 106.763 26.551C105.72 27.3637 104.417 27.77 102.853 27.77C101.626 27.77 100.538 27.5017 99.5871 26.965C98.6364 26.413 97.8928 25.6464 97.3561 24.665C96.8194 23.6684 96.5511 22.5107 96.5511 21.192ZM110.387 21.146C110.387 19.858 110.64 18.7157 111.146 17.719C111.667 16.7224 112.365 15.9557 113.239 15.419C114.128 14.8824 115.117 14.614 116.206 14.614C117.157 14.614 117.985 14.8057 118.69 15.189C119.411 15.5724 119.986 16.0554 120.415 16.638V14.821H123.658V27.563H120.415V25.7C120.001 26.298 119.426 26.7964 118.69 27.195C117.969 27.5784 117.134 27.77 116.183 27.77C115.11 27.77 114.128 27.494 113.239 26.942C112.365 26.39 111.667 25.6157 111.146 24.619C110.64 23.607 110.387 22.4494 110.387 21.146ZM120.415 21.192C120.415 20.41 120.262 19.743 119.955 19.191C119.648 18.6237 119.234 18.1944 118.713 17.903C118.192 17.5964 117.632 17.443 117.034 17.443C116.436 17.443 115.884 17.5887 115.378 17.88C114.872 18.1714 114.458 18.6007 114.136 19.168C113.829 19.72 113.676 20.3794 113.676 21.146C113.676 21.9127 113.829 22.5874 114.136 23.17C114.458 23.7374 114.872 24.1744 115.378 24.481C115.899 24.7877 116.451 24.941 117.034 24.941C117.632 24.941 118.192 24.7954 118.713 24.504C119.234 24.1974 119.648 23.768 119.955 23.216C120.262 22.6487 120.415 21.974 120.415 21.192ZM131.679 27.77C130.636 27.77 129.701 27.586 128.873 27.218C128.045 26.8347 127.386 26.321 126.895 25.677C126.42 25.033 126.159 24.32 126.113 23.538H129.356C129.417 24.0287 129.655 24.435 130.069 24.757C130.498 25.079 131.027 25.24 131.656 25.24C132.269 25.24 132.745 25.1174 133.082 24.872C133.435 24.6267 133.611 24.3124 133.611 23.929C133.611 23.515 133.396 23.2084 132.967 23.009C132.553 22.7944 131.886 22.5644 130.966 22.319C130.015 22.089 129.233 21.8514 128.62 21.606C128.022 21.3607 127.501 20.985 127.056 20.479C126.627 19.973 126.412 19.2907 126.412 18.432C126.412 17.7267 126.611 17.0827 127.01 16.5C127.424 15.9174 128.007 15.4574 128.758 15.12C129.525 14.7827 130.422 14.614 131.449 14.614C132.967 14.614 134.178 14.9974 135.083 15.764C135.988 16.5154 136.486 17.535 136.578 18.823H133.496C133.45 18.317 133.235 17.9184 132.852 17.627C132.484 17.3204 131.986 17.167 131.357 17.167C130.774 17.167 130.322 17.2744 130 17.489C129.693 17.7037 129.54 18.0027 129.54 18.386C129.54 18.8154 129.755 19.145 130.184 19.375C130.613 19.5897 131.28 19.812 132.185 20.042C133.105 20.272 133.864 20.5097 134.462 20.755C135.06 21.0004 135.574 21.3837 136.003 21.905C136.448 22.411 136.678 23.0857 136.693 23.929C136.693 24.665 136.486 25.3244 136.072 25.907C135.673 26.4897 135.091 26.9497 134.324 27.287C133.573 27.609 132.691 27.77 131.679 27.77ZM146.512 14.637C147.478 14.637 148.337 14.8517 149.088 15.281C149.839 15.695 150.422 16.316 150.836 17.144C151.265 17.9567 151.48 18.938 151.48 20.088V27.563H148.26V20.525C148.26 19.513 148.007 18.7387 147.501 18.202C146.995 17.65 146.305 17.374 145.431 17.374C144.542 17.374 143.836 17.65 143.315 18.202C142.809 18.7387 142.556 19.513 142.556 20.525V27.563H139.336V10.543H142.556V16.408C142.97 15.856 143.522 15.4267 144.212 15.12C144.902 14.798 145.669 14.637 146.512 14.637Z" fill="white"/>
<path d="M34.1422 5.85781C30.3647 2.08031 25.3422 0 20 0C14.6578 0 9.63531 2.08031 5.85781 5.85781C2.08031 9.63531 0 14.6578 0 20C0 25.3422 2.08039 30.3646 5.85781 34.1422C9.63523 37.9198 14.6578 40 20 40C25.3422 40 30.3647 37.9197 34.1422 34.1422C37.9197 30.3647 40 25.3422 40 20C40 14.6578 37.9196 9.63539 34.1422 5.85781Z" fill="#33CC95"/>
<g clip-path="url(#clip0_36212_200)">
<path d="M20.5715 8.00009V33.1429" stroke="white" stroke-width="2" stroke-linecap="round" stroke-linejoin="round"/>
<path d="M26.2858 12.5715H17.7144C16.6535 12.5715 15.6361 12.9929 14.8859 13.7431C14.1358 14.4932 13.7144 15.5107 13.7144 16.5715C13.7144 17.6324 14.1358 18.6498 14.8859 19.3999C15.6361 20.1501 16.6535 20.5715 17.7144 20.5715H23.4286C24.4895 20.5715 25.5069 20.9929 26.2571 21.7431C27.0072 22.4932 27.4286 23.5107 27.4286 24.5715C27.4286 25.6324 27.0072 26.6498 26.2571 27.3999C25.5069 28.1501 24.4895 28.5715 23.4286 28.5715H13.7144" stroke="white" stroke-width="2" stroke-linecap="round" stroke-linejoin="round"/>
</g>
<defs>
<clipPath id="clip0_36212_200">
<rect width="27.4286" height="27.4286" fill="white" transform="translate(6.85718 6.85722)"/>
</clipPath>
</defs>
</svg>
